<svg width="20" height="20" viewBox="0 0 20 20" fill="none" xmlns="http://www.w3.org/2000/svg">
<path d="M2.5 4.58333C2.5 3.43274 3.43274 2.5 4.58333 2.5H7.08333C8.23393 2.5 9.16667 3.43274 9.16667 4.58333V7.08333C9.16667 8.23393 8.23393 9.16667 7.08333 9.16667H4.58333C3.43274 9.16667 2.5 8.23393 2.5 7.08333V4.58333Z" fill="#4A5578"/>
<path d="M2.5 12.9167C2.5 11.7661 3.43274 10.8333 4.58333 10.8333H7.08333C8.23393 10.8333 9.16667 11.7661 9.16667 12.9167V15.4167C9.16667 16.5673 8.23393 17.5 7.08333 17.5H4.58333C3.43274 17.5 2.5 16.5673 2.5 15.4167V12.9167Z" fill="#4A5578"/>
<path d="M10.8333 4.58333C10.8333 3.43274 11.7661 2.5 12.9167 2.5H15.4167C16.5673 2.5 17.5 3.43274 17.5 4.58333V7.08333C17.5 8.23393 16.5673 9.16667 15.4167 9.16667H12.9167C11.7661 9.16667 10.8333 8.23393 10.8333 7.08333V4.58333Z" fill="#4A5578"/>
<path d="M10.8333 12.9167C10.8333 11.7661 11.7661 10.8333 12.9167 10.8333H15.4167C16.5673 10.8333 17.5 11.7661 17.5 12.9167V15.4167C17.5 16.5673 16.5673 17.5 15.4167 17.5H12.9167C11.7661 17.5 10.8333 16.5673 10.8333 15.4167V12.9167Z" fill="#4A5578"/>
</svg>
